<?xml version="1.0" standalone="no"?>
<!DOCTYPE svg PUBLIC "-//W3C//DTD SVG 20010904//EN"
 "http://www.w3.org/TR/2001/REC-SVG-20010904/DTD/svg10.dtd">
<svg version="1.0" xmlns="http://www.w3.org/2000/svg"
 width="384.000000pt" height="372.000000pt" viewBox="0 0 384.000000 372.000000"
 preserveAspectRatio="xMidYMid meet">

<g transform="translate(0.000000,372.000000) scale(0.100000,-0.100000)"
fill="#000000" stroke="none">
<path d="M1569 3691 l-29 -29 0 -894 c0 -928 0 -926 41 -951 37 -23 73 5 325
255 196 194 256 249 271 244 10 -4 148 -191 308 -417 159 -226 300 -420 314
-430 22 -17 43 -19 247 -19 122 0 234 4 249 10 32 12 48 51 35 86 -6 15 -184
272 -397 572 -212 300 -388 554 -391 564 -4 15 38 62 171 196 98 99 178 188
182 202 3 14 5 141 3 282 -3 235 -5 258 -22 277 -11 13 -31 21 -50 21 -26 0
-74 -44 -386 -355 -196 -195 -360 -355 -366 -355 -32 0 -34 25 -34 368 l0 344
-29 29 -29 29 -192 0 -192 0 -29 -29z"/>
<path d="M2151 3661 c-7 -5 -11 -19 -9 -32 2 -19 22 -34 89 -69 47 -25 108
-60 136 -77 27 -18 57 -33 65 -33 21 0 50 35 46 56 -6 34 -299 172 -327 155z"/>
<path d="M1287 3626 c-367 -161 -632 -463 -732 -838 -116 -434 4 -892 318
-1212 248 -252 563 -386 906 -386 258 0 501 73 703 210 155 106 157 112 78
222 -74 102 -79 104 -106 40 -20 -49 -42 -71 -89 -93 -59 -28 -104 -24 -158
12 -44 29 -49 30 -84 19 -49 -16 -69 -34 -76 -69 -14 -67 -109 -120 -192 -106
-69 11 -135 71 -135 123 0 31 -30 58 -87 78 -55 19 -54 19 -123 -21 -36 -21
-114 -19 -160 5 -60 31 -93 81 -98 151 -3 43 0 65 12 84 21 32 20 53 -4 93
-17 27 -26 32 -57 32 -89 1 -161 64 -182 162 -12 53 -6 97 19 148 22 43 44 64
92 83 29 12 39 23 47 54 15 54 15 55 -25 107 -68 86 -56 193 32 280 64 65 101
73 229 54 20 -3 20 3 23 380 1 253 -1 390 -8 402 -15 29 -53 25 -143 -14z"/>
<path d="M2867 2892 c-31 -31 -57 -63 -57 -70 0 -6 12 -15 28 -18 83 -20 122
-69 122 -152 0 -83 -42 -142 -110 -157 -21 -5 -30 -13 -30 -26 0 -19 145 -234
173 -258 23 -19 35 6 48 104 15 112 6 289 -21 405 -27 119 -64 224 -81 228 -8
1 -40 -24 -72 -56z"/>
<path d="M1300 2763 c-51 -19 -98 -100 -86 -149 9 -34 22 -30 52 19 15 23 40
58 55 78 16 20 29 42 29 48 0 11 -24 13 -50 4z"/>
<path d="M2829 2696 c-2 -3 -3 -25 -1 -51 4 -48 24 -58 30 -16 7 43 -12 84
-29 67z"/>
<path d="M1137 2242 c-37 -41 -8 -162 39 -162 17 0 18 26 3 106 -13 71 -20 80
-42 56z"/>
<path d="M1350 1766 c0 -45 94 -100 114 -67 7 10 -85 91 -103 91 -6 0 -11 -11
-11 -24z"/>
<path d="M2308 1693 c-36 -25 -42 -43 -14 -43 20 0 66 39 66 56 0 19 -8 17
-52 -13z"/>
<path d="M1822 1558 c12 -34 82 -44 115 -16 23 19 3 28 -58 28 -44 0 -60 -3
-57 -12z"/>
<path d="M862 1078 c-9 -9 -12 -122 -12 -448 0 -436 2 -460 34 -460 5 0 66 56
135 125 72 71 131 121 137 117 6 -4 71 -92 144 -197 73 -104 140 -196 149
-202 10 -9 52 -13 126 -13 109 0 135 7 135 36 0 7 -84 131 -186 275 -103 145
-189 270 -192 277 -2 7 34 52 82 101 l86 88 0 126 c0 69 -3 132 -6 141 -15 38
-50 13 -219 -154 -94 -93 -174 -170 -178 -170 -4 0 -7 76 -7 169 0 141 -3 172
-16 185 -19 20 -193 23 -212 4z"/>
<path d="M290 879 c-76 -13 -173 -63 -210 -107 -70 -85 -93 -236 -54 -359 26
-82 96 -152 184 -182 90 -30 216 -37 309 -17 181 38 271 147 271 325 0 158
-71 269 -203 317 -79 28 -210 39 -297 23z m210 -216 c37 -22 50 -52 50 -118 0
-106 -33 -135 -157 -135 -90 0 -117 13 -139 66 -28 68 -10 155 39 184 42 26
166 28 207 3z"/>
<path d="M2608 880 c-122 -21 -217 -79 -257 -159 -68 -134 -47 -317 47 -414
47 -49 97 -75 181 -93 164 -34 327 -3 421 82 50 45 74 90 90 169 23 112 -5
233 -70 308 -79 90 -250 134 -412 107z m186 -210 c45 -17 68 -66 63 -139 -3
-57 -7 -67 -35 -92 -30 -27 -38 -29 -117 -29 -79 0 -87 2 -117 29 -32 28 -33
32 -33 104 0 79 14 109 60 128 28 11 149 11 179 -1z"/>
<path d="M3414 876 c-16 -12 -20 -30 -24 -118 l-5 -103 -102 -5 c-62 -3 -107
-10 -115 -18 -17 -18 -22 -131 -6 -162 13 -24 19 -25 118 -30 l105 -5 5 -103
c6 -125 12 -132 110 -132 92 0 100 10 100 126 0 57 4 94 12 102 8 8 46 12 103
12 117 0 125 7 125 107 0 96 -9 103 -126 103 -57 0 -94 4 -102 12 -8 8 -12 46
-12 104 0 85 -2 94 -22 108 -29 21 -137 21 -164 2z"/>
<path d="M1572 858 c-17 -17 -16 -162 1 -176 7 -6 58 -13 113 -14 l99 -3 5
-220 5 -220 104 -3 c65 -2 108 1 115 8 7 7 13 90 16 223 l5 212 102 5 c56 3
105 9 109 13 13 13 17 130 5 160 l-11 27 -328 0 c-242 0 -331 -3 -340 -12z"/>
</g>
</svg>
